<?xml version="1.0" encoding="utf-8"?>
<!-- Generator: Adobe Illustrator 26.0.0, SVG Export Plug-In . SVG Version: 6.00 Build 0)  -->
<svg version="1.1" id="Layer_1" xmlns="http://www.w3.org/2000/svg" xmlns:xlink="http://www.w3.org/1999/xlink" x="0px" y="0px"
	 viewBox="0 0 24 24" style="enable-background:new 0 0 24 24;" xml:space="preserve">
<style type="text/css">
	.st0{fill-rule:evenodd;clip-rule:evenodd;}
</style>
<path class="st0" d="M13,10.6V13h4c-0.2,1-1.2,3-4,3c-2.4,0-4.3-2-4.3-4.4c0-2.4,1.9-4.4,4.3-4.4c1.4,0,2.3,0.6,2.8,1.1l1.9-1.8
	c-1.2-1.1-2.8-1.8-4.7-1.8c-3.9,0-7,3.1-7,7s3.1,7,7,7c4,0,6.7-2.8,6.7-6.8c0-0.5-0.1-0.8-0.1-1.2C19.6,10.6,13,10.6,13,10.6z"/>
</svg>
