<?xml version="1.0" encoding="utf-8"?>
<!-- Generator: Adobe Illustrator 26.0.0, SVG Export Plug-In . SVG Version: 6.00 Build 0)  -->
<svg version="1.1" id="Layer_1" xmlns="http://www.w3.org/2000/svg" xmlns:xlink="http://www.w3.org/1999/xlink" x="0px" y="0px"
	 viewBox="0 0 24 24" style="enable-background:new 0 0 24 24;" xml:space="preserve">
<style type="text/css">
	.st0{fill-rule:evenodd;clip-rule:evenodd;fill:#FFFFFF;}
</style>
<path class="st0" d="M16,24H8v-1h3.5v-3C7.9,19.7,5,16.7,5,13v-2h1v2c0,3.3,2.7,6,6,6c3.3,0,6-2.7,6-6v-2h1v2c0,3.7-2.9,6.7-6.5,7v3
	H16V24z M7,5c0-2.8,2.2-5,5-5s5,2.2,5,5v8c0,2.8-2.2,5-5,5s-5-2.2-5-5V5z M16,5c0-2.2-1.8-4-4-4S8,2.8,8,5v8c0,2.2,1.8,4,4,4
	s4-1.8,4-4V5z"/>
</svg>
