<?xml version="1.0" encoding="utf-8"?>
<!-- Generator: Adobe Illustrator 26.0.0, SVG Export Plug-In . SVG Version: 6.00 Build 0)  -->
<svg version="1.1" id="Layer_1" xmlns="http://www.w3.org/2000/svg" xmlns:xlink="http://www.w3.org/1999/xlink" x="0px" y="0px"
	 viewBox="0 0 400 400" style="enable-background:new 0 0 400 400;" xml:space="preserve">
<style type="text/css">
	.st0{fill:none;stroke:#FFFFFF;stroke-width:10.4;stroke-miterlimit:40;}
	.st1{fill:none;stroke:#FFFFFF;stroke-width:3.56;stroke-miterlimit:40;}
	.st2{fill:none;stroke:#FFFFFF;stroke-width:3.44;stroke-miterlimit:40;}
	.st3{fill:none;stroke:#FFFFFF;stroke-width:3.36;stroke-miterlimit:40;}
	.st4{fill:none;stroke:#FFFFFF;stroke-width:3.24;stroke-miterlimit:40;}
	.st5{fill:none;stroke:#FFFFFF;stroke-width:3.16;stroke-miterlimit:40;}
	.st6{fill:none;stroke:#FFFFFF;stroke-width:3.08;stroke-miterlimit:40;}
</style>
<rect x="88.3" y="74.1" class="st0" width="239.2" height="239.2"/>
<path class="st1" d="M94.6,209.9c45.9,313.3,79.1-29.2,79.1-29.2s58.3-495.5,89.5,215"/>
<path class="st2" d="M82,208.6c52.8,256.8,90.9-24,90.9-24S240-221.4,276,360.9"/>
<path class="st3" d="M67.5,207.5C128.2,418,172,188,172,188s77-333,118.3,144.4"/>
<path class="st4" d="M50.9,206.6c69.7,172.5,120-16,120-16s88.4-272.9,136,118.4"/>
<path class="st5" d="M31.7,205.9c80,141.4,138.1-13.2,138.1-13.2s101.7-223.7,156.2,97"/>
<path class="st6" d="M9.7,205.3c92,116,158.7-10.8,158.7-10.8S285.3,11.2,348,274.1"/>
</svg>
