<svg id="Layer_1" data-name="Layer 1" xmlns="http://www.w3.org/2000/svg" viewBox="0 0 100 100"><defs><style>.cls-1{fill:#fff;stroke-width:2.6px;}.cls-1,.cls-2,.cls-3,.cls-4,.cls-5,.cls-6,.cls-7{stroke:#231f20;stroke-miterlimit:10;}.cls-2,.cls-3,.cls-4,.cls-5,.cls-6,.cls-7{fill:none;}.cls-2{stroke-width:0.89px;}.cls-3{stroke-width:0.86px;}.cls-4{stroke-width:0.84px;}.cls-5{stroke-width:0.81px;}.cls-6{stroke-width:0.79px;}.cls-7{stroke-width:0.77px;}</style></defs><rect class="cls-1" x="22.07" y="18.53" width="59.8" height="59.8"/><path class="cls-2" d="M23.66,52.48c11.48,78.33,19.77-7.29,19.77-7.29S58-78.68,65.81,98.93"/><path class="cls-3" d="M20.51,52.15c13.19,64.2,22.72-6,22.72-6S60-55.36,69,90.22"/><path class="cls-4" d="M16.88,51.88C32.05,104.51,43,47,43,47S62.25-36.24,72.57,83.09"/><path class="cls-5" d="M12.72,51.66c17.43,43.13,30-4,30-4s22.11-68.22,34,29.59"/><path class="cls-6" d="M7.93,51.48c20,35.35,34.52-3.29,34.52-3.29S67.87-7.73,81.51,72.44"/><path class="cls-7" d="M2.43,51.33c23,29,39.67-2.7,39.67-2.7S71.32,2.8,87,68.52"/></svg>