<svg xmlns="http://www.w3.org/2000/svg" viewBox="0 0 382.01 431.23"><defs><style>.cls-1{fill:#fff;stroke-width:11.65px;}.cls-1,.cls-2,.cls-3,.cls-4,.cls-5,.cls-6,.cls-7{stroke:#231f20;stroke-miterlimit:10;}.cls-2,.cls-3,.cls-4,.cls-5,.cls-6,.cls-7{fill:none;}.cls-2{stroke-width:3.98px;}.cls-3{stroke-width:3.87px;}.cls-4{stroke-width:3.75px;}.cls-5{stroke-width:3.64px;}.cls-6{stroke-width:3.54px;}.cls-7{stroke-width:3.43px;}</style></defs><g id="Layer_2" data-name="Layer 2"><g id="Layer_1-2" data-name="Layer 1"><rect class="cls-1" x="89.34" y="70.84" width="268" height="268"/><path class="cls-2" d="M96.48,223c51.44,351,88.61-32.66,88.61-32.66s65.27-555.13,100.29,240.83"/><path class="cls-3" d="M82.35,221.49c59.13,287.74,101.86-26.76,101.86-26.76s75-455,115.27,197.4"/><path class="cls-4" d="M66.11,220.28c68,235.85,117.08-21.94,117.08-21.94s86.24-373,132.5,161.81"/><path class="cls-5" d="M47.45,219.29c78.12,193.32,134.57-18,134.57-18s99.12-305.71,152.3,132.62"/><path class="cls-6" d="M26,218.48c89.79,158.46,154.68-14.74,154.68-14.74S294.61-46.85,355.73,312.45"/><path class="cls-7" d="M1.34,217.81c103.21,129.89,177.8-12.08,177.8-12.08s131-205.4,201.2,89.11"/></g></g></svg>